<?xml version="1.0" encoding="UTF-8"?>
<!DOCTYPE svg PUBLIC "-//W3C//DTD SVG 1.1//EN" "http://www.w3.org/Graphics/SVG/1.1/DTD/svg11.dtd">
<svg xmlns="http://www.w3.org/2000/svg" version="1.1" width="406px" height="254px" style="shape-rendering:geometricPrecision; text-rendering:geometricPrecision; image-rendering:optimizeQuality; fill-rule:evenodd; clip-rule:evenodd" xmlns:xlink="http://www.w3.org/1999/xlink">
<g><path style="opacity:1" fill="#fefefe" d="M -0.5,-0.5 C 134.833,-0.5 270.167,-0.5 405.5,-0.5C 405.5,84.1667 405.5,168.833 405.5,253.5C 270.167,253.5 134.833,253.5 -0.5,253.5C -0.5,168.833 -0.5,84.1667 -0.5,-0.5 Z"/></g>
<g><path style="opacity:1" fill="#a8bce2" d="M 197.5,45.5 C 201.964,49.4632 206.298,53.6298 210.5,58C 208.369,57.6017 206.369,56.6017 204.5,55C 202.305,51.6406 199.638,48.8072 196.5,46.5C 197.167,46.5 197.5,46.1667 197.5,45.5 Z"/></g>
<g><path style="opacity:1" fill="#8da4d1" d="M 197.5,67.5 C 196.737,68.2679 195.737,68.7679 194.5,69C 199.464,69.4196 199.631,70.2529 195,71.5C 193.221,70.5209 191.555,70.8542 190,72.5C 188.401,71.9293 187.234,70.9293 186.5,69.5C 189.909,68.0966 193.575,67.4299 197.5,67.5 Z"/></g>
<g><path style="opacity:1" fill="#2750b3" d="M 197.5,67.5 C 202.5,67.5 207.5,67.5 212.5,67.5C 212.714,69.1439 212.38,70.6439 211.5,72C 206.949,73.2148 202.282,73.8814 197.5,74C 196.614,75.6147 195.614,77.1147 194.5,78.5C 192.5,78.8333 190.5,79.1667 188.5,79.5C 188.5,78.5 188.5,77.5 188.5,76.5C 189.043,76.44 189.376,76.1067 189.5,75.5C 188.5,75.1667 187.5,74.8333 186.5,74.5C 183.488,75.1722 180.488,75.8389 177.5,76.5C 176.539,74.7354 176.205,72.7354 176.5,70.5C 179.807,69.9492 183.14,69.6159 186.5,69.5C 187.234,70.9293 188.401,71.9293 190,72.5C 191.555,70.8542 193.221,70.5209 195,71.5C 199.631,70.2529 199.464,69.4196 194.5,69C 195.737,68.7679 196.737,68.2679 197.5,67.5 Z"/></g>
<g><path style="opacity:1" fill="#b2bfdd" d="M 188.5,76.5 C 184.833,76.5 181.167,76.5 177.5,76.5C 180.488,75.8389 183.488,75.1722 186.5,74.5C 187.5,74.8333 188.5,75.1667 189.5,75.5C 189.376,76.1067 189.043,76.44 188.5,76.5 Z"/></g>
<g><path style="opacity:1" fill="#7190cf" d="M 194.5,78.5 C 192.884,80.738 191.551,83.0713 190.5,85.5C 190.657,84.1266 190.49,82.7932 190,81.5C 188.961,82.7101 187.794,83.7101 186.5,84.5C 186.392,82.4862 187.058,80.8195 188.5,79.5C 190.5,79.1667 192.5,78.8333 194.5,78.5 Z"/></g>
<g><path style="opacity:1" fill="#2b54b6" d="M 190.5,85.5 C 189.18,90.4779 187.013,95.1446 184,99.5C 182.644,100.38 181.144,100.714 179.5,100.5C 180.342,94.3926 182.675,89.0593 186.5,84.5C 187.794,83.7101 188.961,82.7101 190,81.5C 190.49,82.7932 190.657,84.1266 190.5,85.5 Z"/></g>
<g><path style="opacity:1" fill="#5f81cb" d="M 197.5,45.5 C 197.5,46.1667 197.167,46.5 196.5,46.5C 195.844,45.7222 195.011,45.0556 194,44.5C 181.397,57.6042 168.563,70.6042 155.5,83.5C 168.167,96.8333 181.167,109.833 194.5,122.5C 206.905,110.596 219.239,98.4292 231.5,86C 232.167,85.3333 232.833,85.3333 233.5,86C 220.806,98.6937 208.14,111.36 195.5,124C 194.833,124.667 194.167,124.667 193.5,124C 179.488,111.321 166.154,97.9877 153.5,84C 166.515,70.3189 179.515,56.6523 192.5,43C 194.928,42.253 196.594,43.0863 197.5,45.5 Z"/></g>
<g><path style="opacity:1" fill="#acbad8" d="M 179.5,134.5 C 181.473,133.837 183.639,133.504 186,133.5C 189.477,133.328 192.644,133.994 195.5,135.5C 190.203,134.725 184.87,134.392 179.5,134.5 Z"/></g>
<g><path style="opacity:1" fill="#4e75c4" d="M 34.5,135.5 C 47.3226,134.505 60.3226,134.171 73.5,134.5C 73.5,137.167 73.5,139.833 73.5,142.5C 72.1667,142.5 70.8333,142.5 69.5,142.5C 69.5,141.167 69.5,139.833 69.5,138.5C 70.1577,139.398 70.8243,140.398 71.5,141.5C 72.4656,139.604 72.7989,137.604 72.5,135.5C 59.8333,135.5 47.1667,135.5 34.5,135.5 Z"/></g>
<g><path style="opacity:1" fill="#4670c0" d="M 129.5,135.5 C 124.125,135.172 118.792,135.505 113.5,136.5C 115.631,137.169 117.631,137.835 119.5,138.5C 117.167,138.5 114.833,138.5 112.5,138.5C 112.5,137.167 112.5,135.833 112.5,134.5C 118.358,134.178 124.025,134.511 129.5,135.5 Z"/></g>
<g><path style="opacity:1" fill="#446dbd" d="M 148.5,138.5 C 150.369,137.835 152.369,137.169 154.5,136.5C 149.5,135.167 144.5,135.167 139.5,136.5C 140.5,137.167 141.5,137.833 142.5,138.5C 142.376,139.107 142.043,139.44 141.5,139.5C 140.791,138.596 139.791,138.263 138.5,138.5C 138.5,137.167 138.5,135.833 138.5,134.5C 144.167,134.5 149.833,134.5 155.5,134.5C 155.5,135.833 155.5,137.167 155.5,138.5C 153.167,138.5 150.833,138.5 148.5,138.5 Z"/></g>
<g><path style="opacity:1" fill="#5378c4" d="M 243.5,138.5 C 243.5,137.5 243.5,136.5 243.5,135.5C 240.167,135.5 236.833,135.5 233.5,135.5C 233.5,136.833 233.5,138.167 233.5,139.5C 232.549,138.081 232.216,136.415 232.5,134.5C 236.5,134.5 240.5,134.5 244.5,134.5C 244.768,136.099 244.434,137.432 243.5,138.5 Z"/></g>
<g><path style="opacity:1" fill="#5276c0" d="M 262.5,138.5 C 264.369,137.835 266.369,137.169 268.5,136.5C 263.167,135.167 257.833,135.167 252.5,136.5C 254.167,137.167 255.833,137.833 257.5,138.5C 257.376,139.107 257.043,139.44 256.5,139.5C 255.081,138.549 253.415,138.216 251.5,138.5C 251.5,137.167 251.5,135.833 251.5,134.5C 257.5,134.5 263.5,134.5 269.5,134.5C 269.5,135.833 269.5,137.167 269.5,138.5C 267.167,138.5 264.833,138.5 262.5,138.5 Z"/></g>
<g><path style="opacity:1" fill="#1748af" d="M 34.5,135.5 C 47.1667,135.5 59.8333,135.5 72.5,135.5C 72.7989,137.604 72.4656,139.604 71.5,141.5C 70.8243,140.398 70.1577,139.398 69.5,138.5C 65.1667,138.5 60.8333,138.5 56.5,138.5C 55.5151,142.634 55.1818,146.968 55.5,151.5C 58.1667,151.5 60.8333,151.5 63.5,151.5C 63.5,152.5 63.5,153.5 63.5,154.5C 57.5,154.5 51.5,154.5 45.5,154.5C 45.5,153.5 45.5,152.5 45.5,151.5C 47.8333,151.5 50.1667,151.5 52.5,151.5C 52.8182,146.968 52.4849,142.634 51.5,138.5C 46.8333,138.5 42.1667,138.5 37.5,138.5C 37.5,139.5 37.5,140.5 37.5,141.5C 36.5,141.5 35.5,141.5 34.5,141.5C 34.5,139.5 34.5,137.5 34.5,135.5 Z"/></g>
<g><path style="opacity:1" fill="#2750b3" d="M 83.5,134.5 C 89.5092,134.334 95.5092,134.501 101.5,135C 108.74,137.641 110.906,142.475 108,149.5C 106.363,151.81 104.196,153.31 101.5,154C 95.1667,154.667 88.8333,154.667 82.5,154C 74.3097,146.999 74.643,140.499 83.5,134.5 Z"/></g>
<g><path style="opacity:1" fill="#1e4bb2" d="M 129.5,135.5 C 129.5,136.5 129.5,137.5 129.5,138.5C 128.448,138.351 127.448,138.517 126.5,139C 129.011,140.848 131.511,142.681 134,144.5C 136.386,142.605 138.886,140.938 141.5,139.5C 142.043,139.44 142.376,139.107 142.5,138.5C 141.5,137.833 140.5,137.167 139.5,136.5C 144.5,135.167 149.5,135.167 154.5,136.5C 152.369,137.169 150.369,137.835 148.5,138.5C 144.104,141.025 140.104,144.025 136.5,147.5C 135.566,148.568 135.232,149.901 135.5,151.5C 137.833,151.5 140.167,151.5 142.5,151.5C 142.5,152.5 142.5,153.5 142.5,154.5C 136.833,154.5 131.167,154.5 125.5,154.5C 125.5,153.167 125.5,151.833 125.5,150.5C 127.5,150.5 129.5,150.5 131.5,150.5C 131.649,149.448 131.483,148.448 131,147.5C 127.291,144.285 123.458,141.285 119.5,138.5C 117.631,137.835 115.631,137.169 113.5,136.5C 118.792,135.505 124.125,135.172 129.5,135.5 Z"/></g>
<g><path style="opacity:1" fill="#244fb4" d="M 179.5,134.5 C 184.87,134.392 190.203,134.725 195.5,135.5C 195.842,136.338 196.508,136.672 197.5,136.5C 197.56,137.043 197.893,137.376 198.5,137.5C 199.167,136.833 199.833,136.167 200.5,135.5C 201.466,137.396 201.799,139.396 201.5,141.5C 200.167,141.5 198.833,141.5 197.5,141.5C 196.653,140.034 195.32,139.2 193.5,139C 188.572,137.582 183.572,137.249 178.5,138C 177.62,139.356 177.286,140.856 177.5,142.5C 178.5,142.5 179.5,142.5 180.5,142.5C 187.019,143.281 193.686,143.948 200.5,144.5C 204.467,147.201 204.467,150.034 200.5,153C 192.77,155.12 185.103,154.954 177.5,152.5C 176.476,153.853 175.143,154.52 173.5,154.5C 173.5,152.167 173.5,149.833 173.5,147.5C 176.871,148.323 180.204,149.489 183.5,151C 188.537,151.663 193.537,151.496 198.5,150.5C 198.67,149.178 198.337,148.011 197.5,147C 191.167,146.667 184.833,146.333 178.5,146C 176.41,145.331 174.743,144.164 173.5,142.5C 172.881,137.794 174.881,135.127 179.5,134.5 Z"/></g>
<g><path style="opacity:1" fill="#eceff3" d="M 197.5,141.5 C 192.025,142.489 186.358,142.822 180.5,142.5C 179.5,142.5 178.5,142.5 177.5,142.5C 177.286,140.856 177.62,139.356 178.5,138C 183.572,137.249 188.572,137.582 193.5,139C 195.32,139.2 196.653,140.034 197.5,141.5 Z"/></g>
<g><path style="opacity:1" fill="#c4d0e7" d="M 295.5,134.5 C 290.833,134.5 286.167,134.5 281.5,134.5C 281.5,135.5 281.5,136.5 281.5,137.5C 283.924,137.192 286.257,137.526 288.5,138.5C 287.812,139.855 286.812,140.855 285.5,141.5C 284.526,139.915 283.026,138.915 281,138.5C 280.506,136.866 280.34,135.199 280.5,133.5C 285.695,133.179 290.695,133.513 295.5,134.5 Z"/></g>
<g><path style="opacity:1" fill="#f1f3f7" d="M 83.5,138.5 C 89.8421,138.334 96.1754,138.5 102.5,139C 106.919,143.819 106.252,147.819 100.5,151C 95.1667,151.667 89.8333,151.667 84.5,151C 79.6236,147.231 79.2903,143.064 83.5,138.5 Z"/></g>
<g><path style="opacity:1" fill="#c9d1e2" d="M 318.5,138.5 C 320.833,138.5 323.167,138.5 325.5,138.5C 325.5,142.833 325.5,147.167 325.5,151.5C 323.167,151.5 320.833,151.5 318.5,151.5C 318.5,152.5 318.5,153.5 318.5,154.5C 317.199,153.116 317.199,151.616 318.5,150C 320.473,149.505 322.473,149.338 324.5,149.5C 324.5,146.167 324.5,142.833 324.5,139.5C 322.265,139.795 320.265,139.461 318.5,138.5 Z"/></g>
<g><path style="opacity:1" fill="#6b8bca" d="M 200.5,144.5 C 193.686,143.948 187.019,143.281 180.5,142.5C 186.358,142.822 192.025,142.489 197.5,141.5C 198.833,141.5 200.167,141.5 201.5,141.5C 201.799,139.396 201.466,137.396 200.5,135.5C 199.833,136.167 199.167,136.833 198.5,137.5C 197.893,137.376 197.56,137.043 197.5,136.5C 198.779,135.032 200.446,134.365 202.5,134.5C 202.5,137.167 202.5,139.833 202.5,142.5C 201.127,142.343 199.793,142.51 198.5,143C 199.416,143.278 200.082,143.778 200.5,144.5 Z"/></g>
<g><path style="opacity:1" fill="#2550b3" d="M 233.5,139.5 C 233.5,138.167 233.5,136.833 233.5,135.5C 236.833,135.5 240.167,135.5 243.5,135.5C 243.5,136.5 243.5,137.5 243.5,138.5C 242.645,139.531 241.978,140.697 241.5,142C 242.935,145.262 244.935,148.096 247.5,150.5C 250.747,146.986 253.747,143.32 256.5,139.5C 257.043,139.44 257.376,139.107 257.5,138.5C 255.833,137.833 254.167,137.167 252.5,136.5C 257.833,135.167 263.167,135.167 268.5,136.5C 266.369,137.169 264.369,137.835 262.5,138.5C 258.54,142.397 255.04,146.731 252,151.5C 250.883,153.124 249.383,154.124 247.5,154.5C 244.128,152.107 240.962,149.441 238,146.5C 235.719,148.619 233.552,150.952 231.5,153.5C 230.277,154.614 228.944,154.781 227.5,154C 223.167,149 218.833,144 214.5,139C 212.19,138.503 209.857,138.337 207.5,138.5C 207.5,137.167 207.5,135.833 207.5,134.5C 213.167,134.5 218.833,134.5 224.5,134.5C 224.5,135.833 224.5,137.167 224.5,138.5C 223.022,138.238 221.689,138.571 220.5,139.5C 223.142,143.309 225.975,146.976 229,150.5C 231.417,147.977 233.584,145.311 235.5,142.5C 235.547,140.962 234.88,139.962 233.5,139.5 Z"/></g>
<g><path style="opacity:1" fill="#b6c2d9" d="M 237.5,137.5 C 239.337,137.639 239.67,138.306 238.5,139.5C 237.702,139.043 237.369,138.376 237.5,137.5 Z"/></g>
<g><path style="opacity:1" fill="#2550b4" d="M 295.5,134.5 C 297.927,138.105 300.593,141.605 303.5,145C 305.391,144.237 307.391,143.403 309.5,142.5C 309.451,145.099 308.451,147.266 306.5,149C 307.056,149.383 307.389,149.883 307.5,150.5C 309.607,151.468 311.941,151.802 314.5,151.5C 314.5,152.5 314.5,153.5 314.5,154.5C 309.167,154.5 303.833,154.5 298.5,154.5C 298.5,153.5 298.5,152.5 298.5,151.5C 300.288,151.785 301.955,151.452 303.5,150.5C 302.311,149.571 300.978,149.238 299.5,149.5C 296.91,148.872 294.577,147.705 292.5,146C 287.921,144.423 284.921,145.923 283.5,150.5C 285.045,151.452 286.712,151.785 288.5,151.5C 288.5,152.5 288.5,153.5 288.5,154.5C 282.833,154.5 277.167,154.5 271.5,154.5C 271.5,153.5 271.5,152.5 271.5,151.5C 273.924,151.808 276.257,151.474 278.5,150.5C 280.6,147.289 282.934,144.289 285.5,141.5C 286.812,140.855 287.812,139.855 288.5,138.5C 286.257,137.526 283.924,137.192 281.5,137.5C 281.5,136.5 281.5,135.5 281.5,134.5C 286.167,134.5 290.833,134.5 295.5,134.5 Z"/></g>
<g><path style="opacity:1" fill="#ccd5e8" d="M 292.5,138.5 C 295.315,139.901 296.648,141.901 296.5,144.5C 294.833,143.167 293.167,141.833 291.5,140.5C 291.863,139.817 292.196,139.15 292.5,138.5 Z"/></g>
<g><path style="opacity:1" fill="#7998d1" d="M 349.5,145.5 C 343.021,146.491 336.354,146.824 329.5,146.5C 329.5,147.833 329.5,149.167 329.5,150.5C 328.549,149.081 328.216,147.415 328.5,145.5C 335.5,145.5 342.5,145.5 349.5,145.5 Z"/></g>
<g><path style="opacity:1" fill="#1d4db3" d="M 349.5,145.5 C 342.5,145.5 335.5,145.5 328.5,145.5C 328.216,147.415 328.549,149.081 329.5,150.5C 331.607,151.468 333.941,151.802 336.5,151.5C 336.5,152.5 336.5,153.5 336.5,154.5C 330.5,154.5 324.5,154.5 318.5,154.5C 318.5,153.5 318.5,152.5 318.5,151.5C 320.833,151.5 323.167,151.5 325.5,151.5C 325.5,147.167 325.5,142.833 325.5,138.5C 323.167,138.5 320.833,138.5 318.5,138.5C 318.5,137.167 318.5,135.833 318.5,134.5C 328.839,134.334 339.172,134.5 349.5,135C 353.213,136.691 354.379,139.525 353,143.5C 351.887,144.305 350.721,144.972 349.5,145.5 Z"/></g>
<g><path style="opacity:1" fill="#869ac3" d="M 329.5,138.5 C 329.5,139.5 329.5,140.5 329.5,141.5C 336.167,141.5 342.833,141.5 349.5,141.5C 342.687,142.491 335.687,142.825 328.5,142.5C 328.232,140.901 328.566,139.568 329.5,138.5 Z"/></g>
<g><path style="opacity:1" fill="#f0f3f7" d="M 329.5,138.5 C 336.5,138.5 343.5,138.5 350.5,138.5C 350.737,139.791 350.404,140.791 349.5,141.5C 342.833,141.5 336.167,141.5 329.5,141.5C 329.5,140.5 329.5,139.5 329.5,138.5 Z"/></g>
<g><path style="opacity:1" fill="#d9dfeb" d="M 173.5,142.5 C 174.743,144.164 176.41,145.331 178.5,146C 184.833,146.333 191.167,146.667 197.5,147C 198.337,148.011 198.67,149.178 198.5,150.5C 193.537,151.496 188.537,151.663 183.5,151C 180.204,149.489 176.871,148.323 173.5,147.5C 174.562,145.901 174.562,144.234 173.5,142.5 Z"/></g>
<g><path style="opacity:1" fill="#8fa6d1" d="M 56.5,138.5 C 56.5,142.5 56.5,146.5 56.5,150.5C 59.0593,150.198 61.3926,150.532 63.5,151.5C 60.8333,151.5 58.1667,151.5 55.5,151.5C 55.1818,146.968 55.5151,142.634 56.5,138.5 Z"/></g>
<g><path style="opacity:1" fill="#8199c8" d="M 136.5,147.5 C 136.5,148.5 136.5,149.5 136.5,150.5C 138.735,150.205 140.735,150.539 142.5,151.5C 140.167,151.5 137.833,151.5 135.5,151.5C 135.232,149.901 135.566,148.568 136.5,147.5 Z"/></g>
<g><path style="opacity:1" fill="#8b9cbe" d="M 329.5,150.5 C 332.167,150.5 334.833,150.5 337.5,150.5C 337.768,152.099 337.434,153.432 336.5,154.5C 336.5,153.5 336.5,152.5 336.5,151.5C 333.941,151.802 331.607,151.468 329.5,150.5 Z"/></g>
<g><path style="opacity:1" fill="#abb8d3" d="M 51.5,138.5 C 52.4849,142.634 52.8182,146.968 52.5,151.5C 50.1667,151.5 47.8333,151.5 45.5,151.5C 45.5,152.5 45.5,153.5 45.5,154.5C 51.5,154.5 57.5,154.5 63.5,154.5C 57.3554,155.49 51.0221,155.823 44.5,155.5C 44.5,153.833 44.5,152.167 44.5,150.5C 46.8333,150.5 49.1667,150.5 51.5,150.5C 51.5,146.5 51.5,142.5 51.5,138.5 Z"/></g>
<g><path style="opacity:1" fill="#bac6dd" d="M 299.5,149.5 C 300.978,149.238 302.311,149.571 303.5,150.5C 301.955,151.452 300.288,151.785 298.5,151.5C 298.5,152.5 298.5,153.5 298.5,154.5C 303.833,154.5 309.167,154.5 314.5,154.5C 314.5,153.5 314.5,152.5 314.5,151.5C 311.941,151.802 309.607,151.468 307.5,150.5C 310.167,150.5 312.833,150.5 315.5,150.5C 315.5,152.167 315.5,153.833 315.5,155.5C 309.5,155.5 303.5,155.5 297.5,155.5C 297.259,153.114 297.925,151.114 299.5,149.5 Z"/></g>
<g><path style="opacity:1" fill="#acafb3" d="M 128.5,170.5 C 126.281,172.575 124.281,174.909 122.5,177.5C 122.457,174.912 123.623,172.579 126,170.5C 126.333,168.833 126.667,167.167 127,165.5C 128.183,164.269 129.349,164.269 130.5,165.5C 129.544,167.075 128.877,168.742 128.5,170.5 Z"/></g>
<g><path style="opacity:1" fill="#b3b6ba" d="M 158.5,166.5 C 159.376,166.369 160.043,166.702 160.5,167.5C 158.749,169.972 157.915,172.639 158,175.5C 159.281,174.353 159.614,174.687 159,176.5C 156.618,177.554 154.118,178.221 151.5,178.5C 151.092,173.729 153.259,170.729 158,169.5C 158.483,168.552 158.649,167.552 158.5,166.5 Z"/></g>
<g><path style="opacity:1" fill="#adb1b5" d="M 258.5,168.5 C 259.097,168.735 259.43,169.235 259.5,170C 258.833,171.667 258.167,173.333 257.5,175C 257.833,175.5 258.167,176 258.5,176.5C 259.833,174.5 261.5,172.833 263.5,171.5C 264.354,172.948 265.354,174.281 266.5,175.5C 263.151,179.001 259.484,179.334 255.5,176.5C 254.5,177.167 253.5,177.833 252.5,178.5C 249.833,178.5 247.167,178.5 244.5,178.5C 242.564,176.022 240.564,176.022 238.5,178.5C 237.264,177.754 235.93,177.421 234.5,177.5C 234.082,180.439 232.582,182.772 230,184.5C 229.308,183.975 228.808,183.308 228.5,182.5C 229.815,180.684 231.315,179.017 233,177.5C 233.036,175.059 233.869,173.059 235.5,171.5C 236.192,172.025 236.692,172.692 237,173.5C 239.084,170.967 241.084,170.967 243,173.5C 243.414,173.043 243.914,172.709 244.5,172.5C 245.096,173.716 245.263,175.049 245,176.5C 246.529,175.271 247.696,173.771 248.5,172C 251.106,172.42 253.772,172.086 256.5,171C 257.756,170.583 258.423,169.75 258.5,168.5 Z"/></g>
<g><path style="opacity:1" fill="#adb0b4" d="M 128.5,170.5 C 129.85,171.483 130.85,172.816 131.5,174.5C 134.01,172.324 136.677,170.324 139.5,168.5C 139.833,169 140.167,169.5 140.5,170C 139.209,172.05 138.709,174.217 139,176.5C 140.688,174.812 142.355,173.145 144,171.5C 147.5,174.343 147.166,176.677 143,178.5C 141.467,177.305 139.967,177.305 138.5,178.5C 136.952,176.078 135.286,176.078 133.5,178.5C 132.833,177.833 132.167,177.167 131.5,176.5C 129.724,178.447 127.724,178.78 125.5,177.5C 126.689,176.571 128.022,176.238 129.5,176.5C 129.483,174.435 129.15,172.435 128.5,170.5 Z"/></g>
<g><path style="opacity:1" fill="#acb0b3" d="M 179.5,174.5 C 179.631,173.624 179.298,172.957 178.5,172.5C 177.066,173.936 175.9,175.602 175,177.5C 174.586,177.043 174.086,176.709 173.5,176.5C 172.452,177.383 171.285,178.05 170,178.5C 168.467,177.305 166.967,177.305 165.5,178.5C 162.326,174.271 163.493,171.938 169,171.5C 170.167,171.667 171.333,171.833 172.5,172C 168.191,175.652 168.524,176.652 173.5,175C 176.111,171.624 178.445,168.124 180.5,164.5C 181.51,167.026 180.843,169.192 178.5,171C 180.495,171.924 180.828,173.09 179.5,174.5 Z"/></g>
<g><path style="opacity:1" fill="#b0b4b7" d="M 179.5,174.5 C 179.369,175.239 179.536,175.906 180,176.5C 181.364,173.637 183.53,171.637 186.5,170.5C 185.592,177.54 186.925,178.04 190.5,172C 192.846,172.792 195.179,172.625 197.5,171.5C 197.351,172.552 197.517,173.552 198,174.5C 201.177,169.992 205.01,169.326 209.5,172.5C 208.855,173.732 208.689,175.065 209,176.5C 208.311,177.357 207.478,178.023 206.5,178.5C 205.109,177.355 203.776,177.355 202.5,178.5C 201.808,181.123 200.308,183.123 198,184.5C 196.073,182.407 196.24,180.407 198.5,178.5C 197.302,178.06 196.135,177.727 195,177.5C 195,176.167 195,174.833 195,173.5C 193.647,174.685 192.48,176.019 191.5,177.5C 190.808,176.975 190.308,176.308 190,175.5C 188.745,177.594 186.912,178.594 184.5,178.5C 182.662,177.888 180.995,177.888 179.5,178.5C 178.218,177.042 178.218,175.708 179.5,174.5 Z"/></g>
<g><path style="opacity:1" fill="#b5b8bb" d="M 221.5,166.5 C 222.497,166.47 223.164,166.97 223.5,168C 222.173,170.453 221.339,172.953 221,175.5C 222.51,173.792 224.01,172.126 225.5,170.5C 226.834,172.818 226.168,174.485 223.5,175.5C 224.868,176.594 226.035,176.26 227,174.5C 227.251,176.603 226.251,177.937 224,178.5C 222.323,177.837 220.49,177.837 218.5,178.5C 214.074,177.892 213.408,175.892 216.5,172.5C 217.85,171.05 219.516,170.383 221.5,170.5C 221.5,169.167 221.5,167.833 221.5,166.5 Z"/></g>
</svg>
