<?xml version="1.0" encoding="UTF-8"?>
<!DOCTYPE svg PUBLIC "-//W3C//DTD SVG 1.1//EN" "http://www.w3.org/Graphics/SVG/1.1/DTD/svg11.dtd">
<svg xmlns="http://www.w3.org/2000/svg" version="1.1" width="295px" height="215px" style="shape-rendering:geometricPrecision; text-rendering:geometricPrecision; image-rendering:optimizeQuality; fill-rule:evenodd; clip-rule:evenodd" xmlns:xlink="http://www.w3.org/1999/xlink">
<g><path style="opacity:1" fill="#070945" d="M -0.5,-0.5 C 97.8333,-0.5 196.167,-0.5 294.5,-0.5C 294.5,71.1667 294.5,142.833 294.5,214.5C 196.167,214.5 97.8333,214.5 -0.5,214.5C -0.5,142.833 -0.5,71.1667 -0.5,-0.5 Z"/></g>
<g><path style="opacity:1" fill="#554c6a" d="M 145.5,59.5 C 111.5,59.5 77.5,59.5 43.5,59.5C 43.5,87.5 43.5,115.5 43.5,143.5C 46.5,143.5 49.5,143.5 52.5,143.5C 52.5,146.5 52.5,149.5 52.5,152.5C 51.5269,150.052 51.1936,147.385 51.5,144.5C 48.5,144.5 45.5,144.5 42.5,144.5C 42.5,115.833 42.5,87.1667 42.5,58.5C 77.0041,58.1683 111.337,58.5017 145.5,59.5 Z"/></g>
<g><path style="opacity:1" fill="#ddc3ad" d="M 145.5,59.5 C 145.5,62.1667 145.5,64.8333 145.5,67.5C 148.5,67.5 151.5,67.5 154.5,67.5C 154.5,73.8333 154.5,80.1667 154.5,86.5C 153.5,86.5 152.5,86.5 151.5,86.5C 151.5,81.1667 151.5,75.8333 151.5,70.5C 119.167,70.5 86.8333,70.5 54.5,70.5C 54.5,96.8333 54.5,123.167 54.5,149.5C 86.8333,149.5 119.167,149.5 151.5,149.5C 151.5,144.167 151.5,138.833 151.5,133.5C 152.5,133.5 153.5,133.5 154.5,133.5C 154.5,139.833 154.5,146.167 154.5,152.5C 120.5,152.5 86.5,152.5 52.5,152.5C 52.5,149.5 52.5,146.5 52.5,143.5C 49.5,143.5 46.5,143.5 43.5,143.5C 43.5,115.5 43.5,87.5 43.5,59.5C 77.5,59.5 111.5,59.5 145.5,59.5 Z"/></g>
<g><path style="opacity:1" fill="#776b7b" d="M 46.5,61.5 C 46.5,87.8333 46.5,114.167 46.5,140.5C 48.1667,140.5 49.8333,140.5 51.5,140.5C 49.7354,141.461 47.7354,141.795 45.5,141.5C 45.1688,114.661 45.5021,87.9948 46.5,61.5 Z"/></g>
<g><path style="opacity:1" fill="#070845" d="M 46.5,61.5 C 78.5,61.5 110.5,61.5 142.5,61.5C 142.5,63.5 142.5,65.5 142.5,67.5C 112.167,67.5 81.8333,67.5 51.5,67.5C 51.5,91.8333 51.5,116.167 51.5,140.5C 49.8333,140.5 48.1667,140.5 46.5,140.5C 46.5,114.167 46.5,87.8333 46.5,61.5 Z"/></g>
<g><path style="opacity:1" fill="#9e8c8e" d="M 142.5,67.5 C 112.671,68.4981 82.6713,68.8314 52.5,68.5C 52.8309,92.6725 52.4976,116.672 51.5,140.5C 51.5,116.167 51.5,91.8333 51.5,67.5C 81.8333,67.5 112.167,67.5 142.5,67.5 Z"/></g>
<g><path style="opacity:1" fill="#dec3ad" d="M 67.5,89.5 C 68.5,89.5 69.5,89.5 70.5,89.5C 70.1729,99.3478 70.5062,109.014 71.5,118.5C 72.6591,120.377 74.3258,120.877 76.5,120C 77.1466,118.391 77.98,116.891 79,115.5C 78.9543,121.852 75.7877,124.018 69.5,122C 67.9632,120.89 67.2965,119.39 67.5,117.5C 67.5,108.167 67.5,98.8333 67.5,89.5 Z"/></g>
<g><path style="opacity:1" fill="#dfc4ae" d="M 135.5,120.5 C 141.442,122.197 142.942,120.197 140,114.5C 137.667,112.167 135.333,109.833 133,107.5C 130.523,103.22 131.356,99.7204 135.5,97C 140.115,96.761 144.615,96.5944 149,96.5C 149.667,99.1667 149.667,101.833 149,104.5C 148.406,99.4657 145.573,97.1324 140.5,97.5C 140.34,99.1992 140.506,100.866 141,102.5C 144,105.5 147,108.5 150,111.5C 151.892,117.042 150.059,120.542 144.5,122C 141.833,122.667 139.167,122.667 136.5,122C 135.944,121.617 135.611,121.117 135.5,120.5 Z"/></g>
<g><path style="opacity:1" fill="#544a6a" d="M 164.5,98.5 C 160.5,97.1667 156.5,97.1667 152.5,98.5C 151.957,98.44 151.624,98.1067 151.5,97.5C 156.5,96.1667 161.5,96.1667 166.5,97.5C 166.043,98.2975 165.376,98.6309 164.5,98.5 Z"/></g>
<g><path style="opacity:1" fill="#6e6277" d="M 190.5,98.5 C 187.833,97.1667 185.167,97.1667 182.5,98.5C 181.957,98.44 181.624,98.1067 181.5,97.5C 184.833,96.1667 188.167,96.1667 191.5,97.5C 191.376,98.1067 191.043,98.44 190.5,98.5 Z"/></g>
<g><path style="opacity:1" fill="#ddc3ad" d="M 197.5,96.5 C 201.182,96.3347 204.848,96.5014 208.5,97C 209.416,97.3742 210.25,97.8742 211,98.5C 212.115,105.975 212.948,113.475 213.5,121C 209.803,123.218 206.469,122.718 203.5,119.5C 195.562,124.901 191.728,122.901 192,113.5C 194.962,110.601 198.462,108.601 202.5,107.5C 203.787,104.291 203.787,101.125 202.5,98C 201.167,97.3333 199.833,97.3333 198.5,98C 201.167,100.667 201.167,103.333 198.5,106C 193.504,106.664 191.67,104.498 193,99.5C 194.652,98.6006 196.152,97.6006 197.5,96.5 Z"/></g>
<g><path style="opacity:1" fill="#7b6e7d" d="M 225.5,96.5 C 222.833,97.1667 220.167,97.8333 217.5,98.5C 216.957,98.44 216.624,98.1067 216.5,97.5C 219.428,96.5159 222.428,96.1826 225.5,96.5 Z"/></g>
<g><path style="opacity:1" fill="#e1c6af" d="M 229.5,122.5 C 229.833,121.833 230.167,121.167 230.5,120.5C 232.614,119.64 233.78,117.973 234,115.5C 234.667,110.833 234.667,106.167 234,101.5C 233.722,100.584 233.222,99.9175 232.5,99.5C 231.833,98.8333 231.167,98.1667 230.5,97.5C 239.897,94.8847 244.23,98.5514 243.5,108.5C 243.778,118.222 239.111,122.889 229.5,122.5 Z"/></g>
<g><path style="opacity:1" fill="#d4bba9" d="M 88.5,96.5 C 100.274,96.1134 105.107,101.78 103,113.5C 100.324,122.087 94.8238,124.587 86.5,121C 81.7963,116.117 80.2963,110.283 82,103.5C 83.6941,100.642 85.8607,98.309 88.5,96.5 Z"/></g>
<g><path style="opacity:1" fill="#d8beab" d="M 118.5,115.5 C 118.5,116.167 118.833,116.5 119.5,116.5C 118.64,119.911 117.474,123.244 116,126.5C 116.155,124.189 116.155,121.856 116,119.5C 113.39,113.947 111.057,108.281 109,102.5C 108.215,100.714 107.049,99.214 105.5,98C 110.288,96.9903 112.621,97.157 112.5,98.5C 114.104,104.311 116.104,109.978 118.5,115.5 Z"/></g>
<g><path style="opacity:1" fill="#dcc2ad" d="M 181.5,111.5 C 181.427,113.027 182.094,114.027 183.5,114.5C 183.039,116.55 182.372,118.55 181.5,120.5C 179.833,121.833 178.167,121.833 176.5,120.5C 174.951,115.681 173.118,111.014 171,106.5C 169.309,111.399 168.143,116.399 167.5,121.5C 165.5,121.5 163.5,121.5 161.5,121.5C 159.635,114.761 157.468,108.095 155,101.5C 154.623,100.058 153.79,99.0577 152.5,98.5C 156.5,97.1667 160.5,97.1667 164.5,98.5C 165.153,102.962 166.32,107.295 168,111.5C 169.642,106.598 170.809,101.598 171.5,96.5C 173.604,96.2011 175.604,96.5344 177.5,97.5C 179.147,102.091 180.481,106.757 181.5,111.5 Z"/></g>
<g><path style="opacity:1" fill="#dcc2ad" d="M 182.5,98.5 C 185.167,97.1667 187.833,97.1667 190.5,98.5C 188.127,100.579 186.794,103.246 186.5,106.5C 185.833,106.5 185.5,106.167 185.5,105.5C 185.66,103.801 185.494,102.134 185,100.5C 184.583,99.244 183.75,98.5774 182.5,98.5 Z"/></g>
<g><path style="opacity:1" fill="#e7cbb2" d="M 225.5,96.5 C 226.167,96.5 226.833,96.5 227.5,96.5C 227.263,97.791 227.596,98.791 228.5,99.5C 228.5,99.8333 228.5,100.167 228.5,100.5C 227.167,109.5 227.167,118.5 228.5,127.5C 229.347,128.966 230.68,129.8 232.5,130C 227.167,130.667 221.833,130.667 216.5,130C 217.416,129.626 218.25,129.126 219,128.5C 219.667,118.833 219.667,109.167 219,99.5C 218.617,98.944 218.117,98.6107 217.5,98.5C 220.167,97.8333 222.833,97.1667 225.5,96.5 Z"/></g>
<g><path style="opacity:1" fill="#9c8a8d" d="M 67.5,89.5 C 67.5,98.8333 67.5,108.167 67.5,117.5C 66.5098,111.355 66.1765,105.022 66.5,98.5C 61.1667,97.8333 61.1667,97.1667 66.5,96.5C 66.1984,93.9407 66.5318,91.6074 67.5,89.5 Z"/></g>
<g><path style="opacity:1" fill="#887984" d="M 70.5,89.5 C 71.4682,91.6074 71.8016,93.9407 71.5,96.5C 80.8333,97.1667 80.8333,97.8333 71.5,98.5C 71.5,105.167 71.5,111.833 71.5,118.5C 70.5062,109.014 70.1729,99.3478 70.5,89.5 Z"/></g>
<g><path style="opacity:1" fill="#0e0e47" d="M 90.5,97.5 C 94.0897,97.5441 96.5897,99.2108 98,102.5C 98.8392,107.921 98.5059,113.254 97,118.5C 92.8535,122.459 89.5201,121.792 87,116.5C 86.3333,111.5 86.3333,106.5 87,101.5C 88.3756,100.295 89.5423,98.9616 90.5,97.5 Z"/></g>
<g><path style="opacity:1" fill="#877783" d="M 227.5,96.5 C 228.222,96.9175 228.722,97.5842 229,98.5C 229.383,97.944 229.883,97.6107 230.5,97.5C 231.167,98.1667 231.833,98.8333 232.5,99.5C 231.167,99.5 229.833,99.5 228.5,99.5C 227.596,98.791 227.263,97.791 227.5,96.5 Z"/></g>
<g><path style="opacity:1" fill="#0d0d47" d="M 228.5,99.5 C 229.833,99.5 231.167,99.5 232.5,99.5C 233.222,99.9175 233.722,100.584 234,101.5C 234.667,106.167 234.667,110.833 234,115.5C 233.78,117.973 232.614,119.64 230.5,120.5C 228.541,114.25 227.874,107.584 228.5,100.5C 228.5,100.167 228.5,99.8333 228.5,99.5 Z"/></g>
<g><path style="opacity:1" fill="#665b73" d="M 228.5,100.5 C 227.874,107.584 228.541,114.25 230.5,120.5C 230.167,121.167 229.833,121.833 229.5,122.5C 228.549,123.919 228.216,125.585 228.5,127.5C 227.167,118.5 227.167,109.5 228.5,100.5 Z"/></g>
<g><path style="opacity:1" fill="#8f7e87" d="M 185.5,105.5 C 185.5,106.167 185.833,106.5 186.5,106.5C 185.871,109.397 184.871,112.064 183.5,114.5C 182.094,114.027 181.427,113.027 181.5,111.5C 182.117,111.611 182.617,111.944 183,112.5C 183.698,109.996 184.531,107.663 185.5,105.5 Z"/></g>
<g><path style="opacity:1" fill="#20194e" d="M 202.5,108.5 C 203.479,111.625 203.813,114.958 203.5,118.5C 200.757,118.923 199.424,117.756 199.5,115C 199.84,112.489 200.84,110.322 202.5,108.5 Z"/></g>
<g><path style="opacity:1" fill="#ab9695" d="M 119.5,116.5 C 118.833,116.5 118.5,116.167 118.5,115.5C 120.767,110.888 122.767,106.055 124.5,101C 124.18,99.3468 123.18,98.3468 121.5,98C 123.833,97.3333 126.167,97.3333 128.5,98C 127.667,98.8333 126.833,99.6667 126,100.5C 124.491,106.214 122.325,111.548 119.5,116.5 Z"/></g>
<g><path style="opacity:1" fill="#cfb6a6" d="M 135.5,120.5 C 133.983,120.511 132.816,121.177 132,122.5C 130.681,110.575 131.847,109.908 135.5,120.5 Z"/></g>
<g><path style="opacity:1" fill="#c7afa2" d="M 107.5,125.5 C 108.833,125.5 110.167,125.5 111.5,125.5C 111.227,127.451 111.893,128.951 113.5,130C 108.665,132.683 106.665,131.183 107.5,125.5 Z"/></g>
</svg>
